<?xml version="1.0" encoding="utf-8"?>
<!-- Generator: Adobe Illustrator 21.1.0, SVG Export Plug-In . SVG Version: 6.00 Build 0)  -->
<svg version="1.1" id="Layer_1" xmlns="http://www.w3.org/2000/svg" xmlns:xlink="http://www.w3.org/1999/xlink" x="0px" y="0px"
	 viewBox="0 0 128 128" style="enable-background:new 0 0 128 128;" xml:space="preserve">
<style type="text/css">
	.st0{fill:#1F1F1F;}
	.st1{fill:none;stroke:#1F1F1F;stroke-width:5;stroke-miterlimit:10;}
</style>
<g>
	<path class="st0" d="M14.7,26c-5.3,2.2-5.7,2.4-5.6,4.7c0.2,3.2,2.6,3.3,10.2,0.3c7.3-2.9,8.5-3.8,7.6-6.1
		C26.2,22.5,22.7,22.8,14.7,26z"/>
	<circle class="st1" cx="64.5" cy="76.5" r="37"/>
	<path class="st0" d="M4,92.5"/>
	<path class="st1" d="M32.1,111.5C18.9,110.2,9,105.2,4.2,94.4c-0.5-1.1-0.7-2.3-0.7-3.6l0-41.1c0-3.8,2.5-7.2,6.1-8.4L32,33.9
		c2.3-0.8,4.3-2.5,5.3-4.8c2.9-6.4,6.6-11.3,11.7-13.3c0.5-0.2,1.1-0.3,1.7-0.3c4,0,20.7,0,26.8,0c1.5,0,3,0.4,4.3,1.1
		c4.6,2.7,7.4,6.5,8.4,11.1c0.7,3.2,3,5.7,6.1,6.6c5.6,1.7,14.1,4.3,19.9,6c3.7,1.1,6.3,4.6,6.3,8.5l0,42c0,1.2-0.2,2.3-0.7,3.4
		c-3.9,9.6-10.9,15.5-21.4,17.2"/>
</g>
</svg>
