<?xml version="1.0" encoding="utf-8"?>
<!-- Generator: Adobe Illustrator 21.1.0, SVG Export Plug-In . SVG Version: 6.00 Build 0)  -->
<svg version="1.1" id="Capa_1" xmlns="http://www.w3.org/2000/svg" xmlns:xlink="http://www.w3.org/1999/xlink" x="0px" y="0px"
	 viewBox="0 0 148 90" style="enable-background:new 0 0 148 90;" xml:space="preserve">
<style type="text/css">
	.st0{fill:none;stroke:#000000;stroke-width:4.5;stroke-miterlimit:10;}
</style>
<g>
	<path class="st0" d="M124,67.8c-0.2-0.3-0.2-0.5-0.4-0.7c-1.8-3.2-5.2-7.1-10.2-11.8l-0.1-0.1l-0.1-0.1l-0.1-0.1h-0.1
		c-2.3-2.2-3.8-3.7-4.4-4.4c-1.1-1.4-1.3-2.9-0.8-4.4c0.4-1.1,2-3.4,4.8-7c1.5-1.9,2.6-3.4,3.5-4.6c6.1-8.2,8.8-13.4,8-15.8
		l-0.3-0.5c-0.2-0.3-0.8-0.6-1.6-0.9c-0.9-0.3-2-0.3-3.5-0.1l-15.4,0.1c-0.2-0.1-0.6-0.1-1.1,0c-0.4,0.3-0.6,0.3-0.6,0.3l-0.3,0.1
		l-0.2,0.1c-0.1,0.1-0.4,0.3-0.6,0.5c-0.2,0.3-0.4,0.6-0.5,0.9c-1.6,4.4-3.6,8.3-5.7,12.1c-1.3,2.2-2.6,4.1-3.7,5.8
		c-1.1,1.7-2,2.8-2.8,3.6s-1.4,1.3-2,1.9c-0.6,0.5-1,0.7-1.4,0.6c-0.3-0.1-0.6-0.1-0.9-0.2c-0.5-0.3-0.9-0.8-1.2-1.3
		c-0.3-0.5-0.5-1.3-0.6-2.1c-0.1-0.8-0.1-1.6-0.2-2.2c0-0.6,0-1.5,0-2.6c0-1.1,0.1-1.9,0.1-2.3c0-1.3,0-2.8,0.1-4.4
		c0.1-1.6,0.1-2.9,0.2-3.8c0-0.9,0.1-1.9,0.1-2.9c0-1.1,0-1.9-0.1-2.5c-0.1-0.6-0.3-1.1-0.5-1.7c-0.2-0.5-0.6-1-1.1-1.3
		c-0.4-0.3-1.1-0.5-1.8-0.8c-1.9-0.4-4.3-0.7-7.2-0.7c-6.7-0.1-10.9,0.4-12.8,1.3c-0.8,0.4-1.4,0.9-2,1.6c-0.7,0.8-0.8,1.2-0.3,1.3
		c2.2,0.3,3.7,1.1,4.6,2.3L61,22c0.2,0.4,0.5,1.3,0.8,2.5c0.2,1.2,0.4,2.5,0.4,3.9c0.2,2.6,0.2,4.8,0,6.7s-0.4,3.3-0.5,4.4
		c-0.1,1-0.4,1.9-0.8,2.5c-0.3,0.7-0.5,1.1-0.7,1.2c-0.1,0.1-0.2,0.2-0.3,0.3c-0.4,0.2-1,0.3-1.4,0.3c-0.5,0-1.1-0.2-1.8-0.8
		c-0.8-0.5-1.4-1.2-2.3-2c-0.8-0.9-1.6-2.1-2.6-3.7c-1-1.6-1.9-3.5-3-5.5L48,30.2c-0.5-1-1.3-2.5-2.2-4.4c-0.9-1.9-1.7-3.8-2.5-5.5
		c-0.3-0.8-0.8-1.4-1.3-1.7l-0.3-0.1c-0.1-0.1-0.5-0.3-0.8-0.5c-0.4-0.1-0.8-0.3-1.2-0.4l-14.5-0.1c-1.5,0-2.5,0.4-3.1,1.1l-0.2,0.3
		c-0.1,0.1-0.2,0.5-0.2,0.8s0.1,0.9,0.3,1.4c2.2,5,4.5,9.9,7,14.6s4.7,8.5,6.5,11.3c1.9,2.8,3.8,5.5,5.7,8.1c2,2.6,3.2,4.1,3.8,4.9
		c0.6,0.8,1.1,1.3,1.5,1.6l1.3,1.3c0.8,0.8,2.1,1.9,3.8,3.1c1.7,1.2,3.5,2.4,5.5,3.5c2,1.1,4.4,2.1,7,2.9c2.7,0.8,5.3,1,7.8,0.9h6.2
		c1.3-0.1,2.2-0.5,2.8-1.2l0.2-0.1c0.1-0.2,0.3-0.5,0.4-1c0.1-0.5,0.2-1,0.2-1.5c0-1.5,0.1-2.9,0.4-4.1c0.3-1.2,0.6-2.2,0.9-2.8
		c0.4-0.6,0.8-1.1,1.1-1.6c0.4-0.5,0.8-0.7,0.9-0.8c0.2-0.1,0.3-0.1,0.5-0.1c0.8-0.3,1.9,0,3,0.8c1.1,0.8,2.3,1.9,3.3,3.1
		c1.1,1.2,2.3,2.6,3.7,4.1s2.7,2.7,3.8,3.4l1.1,0.7c0.8,0.4,1.6,0.8,2.8,1.2s2.2,0.4,3,0.3l13.7-0.2c1.3,0,2.4-0.2,3.1-0.7
		c0.8-0.5,1.2-1,1.4-1.5c0.1-0.5,0.1-1.1,0-1.8C124.3,68.6,124.2,68.1,124,67.8z"/>
</g>
</svg>
